HIERARCHY
ROOT Hips
{
	OFFSET 204.544800 91.059433 303.203186
	CHANNELS 6 Xposition Yposition Zposition Zrotation Yrotation Xrotation 
	JOINT LeftUpLeg
	{
		OFFSET 0.103457 1.857840 10.548497
		CHANNELS 3 Zrotation Yrotation Xrotation
		JOINT LeftLeg
		{
			OFFSET 43.499996 -0.000046 -0.000021
			CHANNELS 3 Zrotation Yrotation Xrotation
			JOINT LeftFoot
			{
				OFFSET 42.372200 0.000019 0.000010
				CHANNELS 3 Zrotation Yrotation Xrotation
				JOINT LeftToe
				{
					OFFSET 17.299992 -0.000004 -0.000006
					CHANNELS 3 Zrotation Yrotation Xrotation
					End Site
					{
						OFFSET 0.000000 0.000000 0.000000
					}
				}
			}
		}
	}
	JOINT RightUpLeg
	{
		OFFSET 0.103462 1.857830 -10.548500
		CHANNELS 3 Zrotation Yrotation Xrotation
		JOINT RightLeg
		{
			OFFSET 43.500050 -0.000008 0.000013
			CHANNELS 3 Zrotation Yrotation Xrotation
			JOINT RightFoot
			{
				OFFSET 42.372265 -0.000008 0.000010
				CHANNELS 3 Zrotation Yrotation Xrotation
				JOINT RightToe
				{
					OFFSET 17.299980 -0.000009 0.000011
					CHANNELS 3 Zrotation Yrotation Xrotation
					End Site
					{
						OFFSET 0.000000 0.000000 0.000000
					}
				}
			}
		}
	}
	JOINT Spine
	{
		OFFSET 6.901966 -2.603740 0.000004
		CHANNELS 3 Zrotation Yrotation Xrotation
		JOINT Spine1
		{
			OFFSET 12.588106 0.000010 -0.000001
			CHANNELS 3 Zrotation Yrotation Xrotation
			JOINT Spine2
			{
				OFFSET 12.343197 0.000001 -0.000010
				CHANNELS 3 Zrotation Yrotation Xrotation
				JOINT Neck
				{
					OFFSET 25.832893 -0.000006 0.000008
					CHANNELS 3 Zrotation Yrotation Xrotation
					JOINT Head
					{
						OFFSET 11.766615 -0.000006 -0.000000
						CHANNELS 3 Zrotation Yrotation Xrotation
						End Site
						{
							OFFSET 0.000000 0.000000 0.000000
						}
					}
				}
				JOINT LeftShoulder
				{
					OFFSET 19.745903 -1.480366 6.000110
					CHANNELS 3 Zrotation Yrotation Xrotation
					JOINT LeftArm
					{
						OFFSET 11.284130 -0.000010 -0.000024
						CHANNELS 3 Zrotation Yrotation Xrotation
						JOINT LeftForeArm
						{
							OFFSET 33.000046 0.000022 0.000031
							CHANNELS 3 Zrotation Yrotation Xrotation
							JOINT LeftHand
							{
								OFFSET 25.200022 0.000011 0.000002
								CHANNELS 3 Zrotation Yrotation Xrotation
								End Site
								{
									OFFSET 0.000000 0.000000 0.000000
								}
							}
						}
					}
				}
				JOINT RightShoulder
				{
					OFFSET 19.746103 -1.480371 -6.000066
					CHANNELS 3 Zrotation Yrotation Xrotation
					JOINT RightArm
					{
						OFFSET 11.284146 -0.000005 -0.000007
						CHANNELS 3 Zrotation Yrotation Xrotation
						JOINT RightForeArm
						{
							OFFSET 33.000076 0.000011 0.000008
							CHANNELS 3 Zrotation Yrotation Xrotation
							JOINT RightHand
							{
								OFFSET 25.199783 0.000146 0.000422
								CHANNELS 3 Zrotation Yrotation Xrotation
								End Site
								{
									OFFSET 0.000000 0.000000 0.000000
								}
							}
						}
					}
				}
			}
		}
	}
}
MOTION
Frames: 7
Frame Time: 0.033333
204.544800 91.059433 303.203186 89.823510 -2.590436 87.191449 168.733786 -4.923288 172.323938 -22.581862 2.463124 -4.446048 83.131066 1.565209 -6.798023 21.454553 0.003092 -0.000002 170.011099 2.848105 -170.193670 -20.580685 -3.714339 7.960335 85.303599 -3.886001 8.170218 21.454557 -0.003115 -0.000019 5.280046 0.190282 0.065262 0.547512 0.370640 0.162008 0.229410 0.371507 0.159818 6.578881 0.317965 -5.421149 -26.421895 0.598001 -5.938172 -70.238039 -84.207387 -112.069163 4.606000 17.710469 -20.653285 -56.177298 -22.295821 2.469101 2.184493 -12.536234 19.197710 -102.498627 84.399124 79.657737 7.475207 -14.472100 16.334411 -43.276697 16.397802 -1.664743 4.578905 9.584233 -3.325707 
204.524506 91.064957 303.194794 89.812541 -2.605673 87.209850 168.719565 -4.943996 172.370342 -22.561969 2.451692 -4.459227 83.106545 1.572892 -6.798024 21.454555 0.003098 0.000001 170.016085 2.819997 -170.202836 -20.537723 -3.707702 7.979294 85.283129 -3.900195 8.158615 21.454558 -0.003103 -0.000017 5.286963 0.190285 0.065266 0.561339 0.370634 0.162021 0.243231 0.371515 0.159812 6.537360 0.274453 -5.421142 -26.384643 0.628355 -5.959504 -70.571024 -84.158292 -111.740939 4.516711 17.710470 -20.672210 -56.165728 -22.307493 2.469092 2.208685 -12.581089 19.172495 -102.327401 84.351976 79.833846 7.424744 -14.486580 16.334414 -43.244175 16.369474 -1.664742 4.507439 9.622944 -3.500825 
204.503601 91.070709 303.186096 89.799011 -2.618968 87.228906 168.706916 -4.966708 172.418454 -22.542075 2.441059 -4.472962 83.081226 1.580911 -6.798024 21.454550 0.003085 -0.000002 170.025689 2.789905 -170.212453 -20.489748 -3.698295 7.998745 85.260719 -3.915047 8.145190 21.454557 -0.003101 -0.000016 5.293314 0.190272 0.065273 0.574064 0.370644 0.162004 0.255952 0.371508 0.159819 6.525649 0.221901 -5.421149 -26.362182 0.667544 -5.986596 -70.858425 -84.127037 -111.456495 4.443835 17.710470 -20.686159 -56.150866 -22.321075 2.469095 2.224272 -12.613827 19.157842 -102.187731 84.323316 79.976789 7.393540 -14.494753 16.334406 -43.220908 16.371103 -1.664739 4.448621 9.655246 -3.597170 
204.484299 91.076347 303.177612 89.786757 -2.633535 87.246309 168.693501 -4.985990 172.460719 -22.521550 2.434772 -4.485151 83.055940 1.587776 -6.798027 21.454550 0.003089 -0.000001 170.033079 2.763309 -170.220007 -20.443598 -3.687379 8.015465 85.239579 -3.928215 8.131146 21.454555 -0.003096 -0.000017 5.297369 0.190284 0.065260 0.582162 0.370636 0.162013 0.264042 0.371503 0.159825 6.554496 0.172409 -5.421151 -26.365179 0.705609 -6.014798 -71.056370 -84.113670 -111.259622 4.398134 17.711970 -20.698953 -56.127377 -22.336474 2.469086 2.212834 -12.608989 19.163725 -102.091821 84.316103 80.073682 7.388668 -14.497380 16.334406 -43.217254 16.406381 -1.664746 4.448405 9.595655 -3.577780 
204.466293 91.081200 303.169708 89.776621 -2.648702 87.261732 168.678666 -5.002293 172.490103 -22.503522 2.434431 -4.491809 83.032854 1.589443 -6.798025 21.454553 0.003104 0.000001 170.036098 2.740499 -170.221742 -20.404623 -3.678496 8.027380 85.222456 -3.938104 8.117873 21.454557 -0.003111 -0.000018 5.300079 0.190287 0.065244 0.588541 0.370637 0.162018 0.270439 0.371498 0.159820 6.591833 0.140704 -5.426555 -26.375764 0.728996 -6.037182 -71.141550 -84.106745 -111.175215 4.374021 17.724191 -20.724167 -56.108320 -22.339896 2.469094 2.198083 -12.597951 19.149882 -102.009408 84.311384 80.157010 7.393277 -14.496221 16.338258 -43.221031 16.454569 -1.664752 4.473120 9.487316 -3.478105 
204.448700 91.084641 303.162415 89.768391 -2.663620 87.276314 168.661495 -5.017305 172.507629 -22.491504 2.436707 -4.493212 83.013866 1.589148 -6.798025 21.454557 0.003096 0.000001 170.033543 2.719699 -170.213095 -20.376995 -3.675962 8.033173 85.211582 -3.943612 8.106629 21.454558 -0.003115 -0.000019 5.302035 0.190288 0.065261 0.593749 0.370626 0.162020 0.275657 0.371515 0.159815 6.635543 0.140116 -5.436972 -26.397062 0.726803 -6.048210 -71.128306 -84.105481 -111.188267 4.368558 17.743783 -20.751179 -56.085463 -22.344660 2.469096 2.181482 -12.569589 19.112121 -101.967430 84.304909 80.199801 7.405701 -14.490941 16.348795 -43.228803 16.504379 -1.664743 4.514529 9.393869 -3.356839 
204.431396 91.086922 303.156097 89.761561 -2.678034 87.290200 168.643053 -5.031094 172.521727 -22.484588 2.440963 -4.492640 82.998683 1.587426 -6.798032 21.454551 0.003091 -0.000001 170.027273 2.700394 -170.199558 -20.358509 -3.674732 8.036374 85.205941 -3.947306 8.097022 21.454558 -0.003119 -0.000018 5.303137 0.190284 0.065263 0.596075 0.370623 0.162025 0.277983 0.371518 0.159812 6.686828 0.173567 -5.449624 -26.432002 0.702890 -6.046320 -71.065707 -84.106717 -111.250852 4.375776 17.766256 -20.777546 -56.061008 -22.353222 2.469100 2.167790 -12.521783 19.074217 -102.001164 84.297450 80.166340 7.426674 -14.482748 16.363726 -43.241173 16.545221 -1.664746 4.557132 9.404923 -3.338354 
